PressStart2P..ufo
<glyph name="quotedbl" format="2">
  <advance width="1024"/>
  <unicode hex="0022"/>
  <outline>
    <contour>
      <point x="512.0" y="832.0" type="line"/>
      <point x="512.0" y="1024.0" type="line"/>
      <point x="640.0" y="1024.0" type="line"/>
      <point x="768.0" y="1024.0" type="line"/>
      <point x="768.0" y="832.0" type="line"/>
      <point x="768.0" y="640.0" type="line"/>
      <point x="640.0" y="640.0" type="line"/>
      <point x="512.0" y="640.0" type="line"/>
    </contour>
    <contour>
      <point x="128.0" y="832.0" type="line"/>
      <point x="128.0" y="1024.0" type="line"/>
      <point x="256.0" y="1024.0" type="line"/>
      <point x="384.0" y="1024.0" type="line"/>
      <point x="384.0" y="832.0" type="line"/>
      <point x="384.0" y="640.0" type="line"/>
      <point x="256.0" y="640.0" type="line"/>
      <point x="128.0" y="640.0" type="line"/>
    </contour>
  </outline>
</glyph>
<glyph name="period" format="2">
  <advance width="1024"/>
  <unicode hex="002E"/>
  <outline>
    <contour>
      <point x="256.0" y="256.0" type="line"/>
      <point x="256.0" y="384.0" type="line"/>
      <point x="384.0" y="384.0" type="line"/>
      <point x="512.0" y="384.0" type="line"/>
      <point x="512.0" y="256.0" type="line"/>
      <point x="512.0" y="128.0" type="line"/>
      <point x="384.0" y="128.0" type="line"/>
      <point x="256.0" y="128.0" type="line"/>
    </contour>
  </outline>
</glyph>
<glyph name="H" format="2">
  <advance width="1024"/>
  <unicode hex="0048"/>
  <outline>
    <contour>
      <point x="0.0" y="576.0" type="line"/>
      <point x="0.0" y="1024.0" type="line"/>
      <point x="128.0" y="1024.0" type="line"/>
      <point x="256.0" y="1024.0" type="line"/>
      <point x="256.0" y="832.0" type="line"/>
      <point x="256.0" y="640.0" type="line"/>
      <point x="448.0" y="640.0" type="line"/>
      <point x="640.0" y="640.0" type="line"/>
      <point x="640.0" y="832.0" type="line"/>
      <point x="640.0" y="1024.0" type="line"/>
      <point x="768.0" y="1024.0" type="line"/>
      <point x="896.0" y="1024.0" type="line"/>
      <point x="896.0" y="576.0" type="line"/>
      <point x="896.0" y="128.0" type="line"/>
      <point x="768.0" y="128.0" type="line"/>
      <point x="640.0" y="128.0" type="line"/>
      <point x="640.0" y="320.0" type="line"/>
      <point x="640.0" y="512.0" type="line"/>
      <point x="448.0" y="512.0" type="line"/>
      <point x="256.0" y="512.0" type="line"/>
      <point x="256.0" y="320.0" type="line"/>
      <point x="256.0" y="128.0" type="line"/>
      <point x="128.0" y="128.0" type="line"/>
      <point x="0.0" y="128.0" type="line"/>
    </contour>
  </outline>
</glyph>
<glyph name="J" format="2">
  <advance width="1024"/>
  <unicode hex="004A"/>
  <outline>
    <contour>
      <point x="640.0" y="640.0" type="line"/>
      <point x="640.0" y="1024.0" type="line"/>
      <point x="768.0" y="1024.0" type="line"/>
      <point x="896.0" y="1024.0" type="line"/>
      <point x="896.0" y="640.0" type="line"/>
      <point x="896.0" y="256.0" type="line"/>
      <point x="832.0" y="256.0" type="line"/>
      <point x="768.0" y="256.0" type="line"/>
      <point x="768.0" y="192.0" type="line"/>
      <point x="768.0" y="128.0" type="line"/>
      <point x="448.0" y="128.0" type="line"/>
      <point x="128.0" y="128.0" type="line"/>
      <point x="128.0" y="192.0" type="line"/>
      <point x="128.0" y="256.0" type="line"/>
      <point x="64.0" y="256.0" type="line"/>
      <point x="0.0" y="256.0" type="line"/>
      <point x="0.0" y="320.0" type="line"/>
      <point x="0.0" y="384.0" type="line"/>
      <point x="128.0" y="384.0" type="line"/>
      <point x="256.0" y="384.0" type="line"/>
      <point x="256.0" y="320.0" type="line"/>
      <point x="256.0" y="256.0" type="line"/>
      <point x="448.0" y="256.0" type="line"/>
      <point x="640.0" y="256.0" type="line"/>
    </contour>
  </outline>
</glyph>
<glyph name="underscore" format="2">
  <advance width="1024"/>
  <unicode hex="005F"/>
  <outline>
    <contour>
      <point x="0.0" y="64.0" type="line"/>
      <point x="0.0" y="128.0" type="line"/>
      <point x="448.0" y="128.0" type="line"/>
      <point x="896.0" y="128.0" type="line"/>
      <point x="896.0" y="64.0" type="line"/>
      <point x="896.0" y="0.0" type="line"/>
      <point x="448.0" y="0.0" type="line"/>
      <point x="0.0" y="0.0" type="line"/>
    </contour>
  </outline>
</glyph>
<glyph name="brokenbar" format="2">
  <advance width="1024"/>
  <unicode hex="00A6"/>
  <outline>
    <contour>
      <point x="384.0" y="320.0" type="line"/>
      <point x="384.0" y="512.0" type="line"/>
      <point x="512.0" y="512.0" type="line"/>
      <point x="640.0" y="512.0" type="line"/>
      <point x="640.0" y="320.0" type="line"/>
      <point x="640.0" y="128.0" type="line"/>
      <point x="512.0" y="128.0" type="line"/>
      <point x="384.0" y="128.0" type="line"/>
    </contour>
    <contour>
      <point x="384.0" y="832.0" type="line"/>
      <point x="384.0" y="1024.0" type="line"/>
      <point x="512.0" y="1024.0" type="line"/>
      <point x="640.0" y="1024.0" type="line"/>
      <point x="640.0" y="832.0" type="line"/>
      <point x="640.0" y="640.0" type="line"/>
      <point x="512.0" y="640.0" type="line"/>
      <point x="384.0" y="640.0" type="line"/>
    </contour>
  </outline>
</glyph>
<glyph name="uni00AD" format="2">
  <advance width="1024"/>
  <unicode hex="00AD"/>
  <outline>
    <contour>
      <point x="128.0" y="576.0" type="line"/>
      <point x="128.0" y="640.0" type="line"/>
      <point x="512.0" y="640.0" type="line"/>
      <point x="896.0" y="640.0" type="line"/>
      <point x="896.0" y="576.0" type="line"/>
      <point x="896.0" y="512.0" type="line"/>
      <point x="512.0" y="512.0" type="line"/>
      <point x="128.0" y="512.0" type="line"/>
    </contour>
  </outline>
</glyph>
<glyph name="periodcentered" format="2">
  <advance width="1024"/>
  <unicode hex="00B7"/>
  <outline>
    <contour>
      <point x="256.0" y="512.0" type="line"/>
      <point x="256.0" y="640.0" type="line"/>
      <point x="384.0" y="640.0" type="line"/>
      <point x="512.0" y="640.0" type="line"/>
      <point x="512.0" y="512.0" type="line"/>
      <point x="512.0" y="384.0" type="line"/>
      <point x="384.0" y="384.0" type="line"/>
      <point x="256.0" y="384.0" type="line"/>
    </contour>
  </outline>
</glyph>
<glyph name="ntilde" format="2">
  <advance width="1024"/>
  <unicode hex="00F1"/>
  <outline>
    <contour>
      <point x="256.0" y="960.0" type="line"/>
      <point x="256.0" y="1024.0" type="line"/>
      <point x="384.0" y="1024.0" type="line"/>
      <point x="512.0" y="1024.0" type="line"/>
      <point x="512.0" y="960.0" type="line"/>
      <point x="512.0" y="896.0" type="line"/>
      <point x="576.0" y="896.0" type="line"/>
      <point x="640.0" y="896.0" type="line"/>
      <point x="640.0" y="960.0" type="line"/>
      <point x="640.0" y="1024.0" type="line"/>
      <point x="704.0" y="1024.0" type="line"/>
      <point x="768.0" y="1024.0" type="line"/>
      <point x="768.0" y="960.0" type="line"/>
      <point x="768.0" y="896.0" type="line"/>
      <point x="704.0" y="896.0" type="line"/>
      <point x="640.0" y="896.0" type="line"/>
      <point x="640.0" y="832.0" type="line"/>
      <point x="640.0" y="768.0" type="line"/>
      <point x="704.0" y="768.0" type="line"/>
      <point x="768.0" y="768.0" type="line"/>
      <point x="768.0" y="704.0" type="line"/>
      <point x="768.0" y="640.0" type="line"/>
      <point x="832.0" y="640.0" type="line"/>
      <point x="896.0" y="640.0" type="line"/>
      <point x="896.0" y="384.0" type="line"/>
      <point x="896.0" y="128.0" type="line"/>
      <point x="768.0" y="128.0" type="line"/>
      <point x="640.0" y="128.0" type="line"/>
      <point x="640.0" y="384.0" type="line"/>
      <point x="640.0" y="640.0" type="line"/>
      <point x="448.0" y="640.0" type="line"/>
      <point x="256.0" y="640.0" type="line"/>
      <point x="256.0" y="384.0" type="line"/>
      <point x="256.0" y="128.0" type="line"/>
      <point x="128.0" y="128.0" type="line"/>
      <point x="0.0" y="128.0" type="line"/>
      <point x="0.0" y="448.0" type="line"/>
      <point x="0.0" y="768.0" type="line"/>
      <point x="64.0" y="768.0" type="line"/>
      <point x="128.0" y="768.0" type="line"/>
      <point x="128.0" y="832.0" type="line"/>
      <point x="128.0" y="896.0" type="line"/>
      <point x="192.0" y="896.0" type="line"/>
      <point x="256.0" y="896.0" type="line"/>
    </contour>
    <contour>
      <point x="384.0" y="832.0" type="line"/>
      <point x="384.0" y="896.0" type="line"/>
      <point x="320.0" y="896.0" type="line"/>
      <point x="256.0" y="896.0" type="line"/>
      <point x="256.0" y="832.0" type="line"/>
      <point x="256.0" y="768.0" type="line"/>
      <point x="320.0" y="768.0" type="line"/>
      <point x="384.0" y="768.0" type="line"/>
    </contour>
  </outline>
</glyph>
<glyph name="thorn" format="2">
  <advance width="1024"/>
  <unicode hex="00FE"/>
  <outline>
    <contour>
      <point x="0.0" y="512.0" type="line"/>
      <point x="0.0" y="1024.0" type="line"/>
      <point x="128.0" y="1024.0" type="line"/>
      <point x="256.0" y="1024.0" type="line"/>
      <point x="256.0" y="896.0" type="line"/>
      <point x="256.0" y="768.0" type="line"/>
      <point x="512.0" y="768.0" type="line"/>
      <point x="768.0" y="768.0" type="line"/>
      <point x="768.0" y="704.0" type="line"/>
      <point x="768.0" y="640.0" type="line"/>
      <point x="832.0" y="640.0" type="line"/>
      <point x="896.0" y="640.0" type="line"/>
      <point x="896.0" y="512.0" type="line"/>
      <point x="896.0" y="384.0" type="line"/>
      <point x="832.0" y="384.0" type="line"/>
      <point x="768.0" y="384.0" type="line"/>
      <point x="768.0" y="320.0" type="line"/>
      <point x="768.0" y="256.0" type="line"/>
      <point x="512.0" y="256.0" type="line"/>
      <point x="256.0" y="256.0" type="line"/>
      <point x="256.0" y="128.0" type="line"/>
      <point x="256.0" y="0.0" type="line"/>
      <point x="128.0" y="0.0" type="line"/>
      <point x="0.0" y="0.0" type="line"/>
    </contour>
    <contour>
      <point x="640.0" y="512.0" type="line"/>
      <point x="640.0" y="640.0" type="line"/>
      <point x="448.0" y="640.0" type="line"/>
      <point x="256.0" y="640.0" type="line"/>
      <point x="256.0" y="512.0" type="line"/>
      <point x="256.0" y="384.0" type="line"/>
      <point x="448.0" y="384.0" type="line"/>
      <point x="640.0" y="384.0" type="line"/>
    </contour>
  </outline>
</glyph>
<glyph name="uni02CA" format="2">
  <advance width="1024"/>
  <unicode hex="02CA"/>
  <outline>
    <contour>
      <point x="512.0" y="960.0" type="line"/>
      <point x="512.0" y="1024.0" type="line"/>
      <point x="576.0" y="1024.0" type="line"/>
      <point x="640.0" y="1024.0" type="line"/>
      <point x="640.0" y="960.0" type="line"/>
      <point x="640.0" y="896.0" type="line"/>
      <point x="576.0" y="896.0" type="line"/>
      <point x="512.0" y="896.0" type="line"/>
      <point x="512.0" y="832.0" type="line"/>
      <point x="512.0" y="768.0" type="line"/>
      <point x="448.0" y="768.0" type="line"/>
      <point x="384.0" y="768.0" type="line"/>
      <point x="384.0" y="832.0" type="line"/>
      <point x="384.0" y="896.0" type="line"/>
      <point x="448.0" y="896.0" type="line"/>
      <point x="512.0" y="896.0" type="line"/>
    </contour>
  </outline>
</glyph>
<glyph name="uni02D7" format="2">
  <advance width="1024"/>
  <unicode hex="02D7"/>
  <outline>
    <contour>
      <point x="128.0" y="576.0" type="line"/>
      <point x="128.0" y="640.0" type="line"/>
      <point x="448.0" y="640.0" type="line"/>
      <point x="768.0" y="640.0" type="line"/>
      <point x="768.0" y="576.0" type="line"/>
      <point x="768.0" y="512.0" type="line"/>
      <point x="448.0" y="512.0" type="line"/>
      <point x="128.0" y="512.0" type="line"/>
    </contour>
  </outline>
</glyph>
<glyph name="dotaccent" format="2">
  <advance width="1024"/>
  <unicode hex="02D9"/>
  <outline>
    <contour>
      <point x="384.0" y="960.0" type="line"/>
      <point x="384.0" y="1024.0" type="line"/>
      <point x="512.0" y="1024.0" type="line"/>
      <point x="640.0" y="1024.0" type="line"/>
      <point x="640.0" y="960.0" type="line"/>
      <point x="640.0" y="896.0" type="line"/>
      <point x="512.0" y="896.0" type="line"/>
      <point x="384.0" y="896.0" type="line"/>
    </contour>
  </outline>
</glyph>
<glyph name="ogonek" format="2">
  <advance width="1024"/>
  <unicode hex="02DB"/>
  <outline>
    <contour>
      <point x="384.0" y="320.0" type="line"/>
      <point x="384.0" y="384.0" type="line"/>
      <point x="448.0" y="384.0" type="line"/>
      <point x="512.0" y="384.0" type="line"/>
      <point x="512.0" y="320.0" type="line"/>
      <point x="512.0" y="256.0" type="line"/>
      <point x="448.0" y="256.0" type="line"/>
      <point x="384.0" y="256.0" type="line"/>
      <point x="384.0" y="192.0" type="line"/>
      <point x="384.0" y="128.0" type="line"/>
      <point x="512.0" y="128.0" type="line"/>
      <point x="640.0" y="128.0" type="line"/>
      <point x="640.0" y="64.0" type="line"/>
      <point x="640.0" y="0.0" type="line"/>
      <point x="512.0" y="0.0" type="line"/>
      <point x="384.0" y="0.0" type="line"/>
      <point x="384.0" y="64.0" type="line"/>
      <point x="384.0" y="128.0" type="line"/>
      <point x="320.0" y="128.0" type="line"/>
      <point x="256.0" y="128.0" type="line"/>
      <point x="256.0" y="192.0" type="line"/>
      <point x="256.0" y="256.0" type="line"/>
      <point x="320.0" y="256.0" type="line"/>
      <point x="384.0" y="256.0" type="line"/>
    </contour>
  </outline>
</glyph>
<glyph name="uni037A" format="2">
  <advance width="1024"/>
  <unicode hex="037A"/>
  <outline>
    <contour>
      <point x="384.0" y="192.0" type="line"/>
      <point x="384.0" y="256.0" type="line"/>
      <point x="448.0" y="256.0" type="line"/>
      <point x="512.0" y="256.0" type="line"/>
      <point x="512.0" y="192.0" type="line"/>
      <point x="512.0" y="128.0" type="line"/>
      <point x="640.0" y="128.0" type="line"/>
      <point x="768.0" y="128.0" type="line"/>
      <point x="768.0" y="64.0" type="line"/>
      <point x="768.0" y="0.0" type="line"/>
      <point x="640.0" y="0.0" type="line"/>
      <point x="512.0" y="0.0" type="line"/>
      <point x="512.0" y="64.0" type="line"/>
      <point x="512.0" y="128.0" type="line"/>
      <point x="448.0" y="128.0" type="line"/>
      <point x="384.0" y="128.0" type="line"/>
    </contour>
  </outline>
</glyph>
<glyph name="uni037E" format="2">
  <advance width="1024"/>
  <unicode hex="037E"/>
  <outline>
    <contour>
      <point x="256.0" y="384.0" type="line"/>
      <point x="256.0" y="512.0" type="line"/>
      <point x="384.0" y="512.0" type="line"/>
      <point x="512.0" y="512.0" type="line"/>
      <point x="512.0" y="384.0" type="line"/>
      <point x="512.0" y="256.0" type="line"/>
      <point x="448.0" y="256.0" type="line"/>
      <point x="384.0" y="256.0" type="line"/>
      <point x="384.0" y="192.0" type="line"/>
      <point x="384.0" y="128.0" type="line"/>
      <point x="256.0" y="128.0" type="line"/>
      <point x="128.0" y="128.0" type="line"/>
      <point x="128.0" y="192.0" type="line"/>
      <point x="128.0" y="256.0" type="line"/>
      <point x="192.0" y="256.0" type="line"/>
      <point x="256.0" y="256.0" type="line"/>
    </contour>
    <contour>
      <point x="256.0" y="768.0" type="line"/>
      <point x="256.0" y="896.0" type="line"/>
      <point x="384.0" y="896.0" type="line"/>
      <point x="512.0" y="896.0" type="line"/>
      <point x="512.0" y="768.0" type="line"/>
      <point x="512.0" y="640.0" type="line"/>
      <point x="384.0" y="640.0" type="line"/>
      <point x="256.0" y="640.0" type="line"/>
    </contour>
  </outline>
</glyph>
<glyph name="mu" format="2">
  <advance width="1024"/>
  <unicode hex="03BC"/>
  <outline>
    <contour>
      <point x="0.0" y="384.0" type="line"/>
      <point x="0.0" y="768.0" type="line"/>
      <point x="128.0" y="768.0" type="line"/>
      <point x="256.0" y="768.0" type="line"/>
      <point x="256.0" y="512.0" type="line"/>
      <point x="256.0" y="256.0" type="line"/>
      <point x="384.0" y="256.0" type="line"/>
      <point x="512.0" y="256.0" type="line"/>
      <point x="512.0" y="512.0" type="line"/>
      <point x="512.0" y="768.0" type="line"/>
      <point x="640.0" y="768.0" type="line"/>
      <point x="768.0" y="768.0" type="line"/>
      <point x="768.0" y="512.0" type="line"/>
      <point x="768.0" y="256.0" type="line"/>
      <point x="832.0" y="256.0" type="line"/>
      <point x="896.0" y="256.0" type="line"/>
      <point x="896.0" y="192.0" type="line"/>
      <point x="896.0" y="128.0" type="line"/>
      <point x="768.0" y="128.0" type="line"/>
      <point x="640.0" y="128.0" type="line"/>
      <point x="640.0" y="192.0" type="line"/>
      <point x="640.0" y="256.0" type="line"/>
      <point x="576.0" y="256.0" type="line"/>
      <point x="512.0" y="256.0" type="line"/>
      <point x="512.0" y="192.0" type="line"/>
      <point x="512.0" y="128.0" type="line"/>
      <point x="384.0" y="128.0" type="line"/>
      <point x="256.0" y="128.0" type="line"/>
      <point x="256.0" y="64.0" type="line"/>
      <point x="256.0" y="0.0" type="line"/>
      <point x="128.0" y="0.0" type="line"/>
      <point x="0.0" y="0.0" type="line"/>
    </contour>
  </outline>
</glyph>
<glyph name="afii10055" format="2">
  <advance width="1024"/>
  <unicode hex="0406"/>
  <outline>
    <contour>
      <point x="128.0" y="960.0" type="line"/>
      <point x="128.0" y="1024.0" type="line"/>
      <point x="512.0" y="1024.0" type="line"/>
      <point x="896.0" y="1024.0" type="line"/>
      <point x="896.0" y="960.0" type="line"/>
      <point x="896.0" y="896.0" type="line"/>
      <point x="768.0" y="896.0" type="line"/>
      <point x="640.0" y="896.0" type="line"/>
      <point x="640.0" y="576.0" type="line"/>
      <point x="640.0" y="256.0" type="line"/>
      <point x="768.0" y="256.0" type="line"/>
      <point x="896.0" y="256.0" type="line"/>
      <point x="896.0" y="192.0" type="line"/>
      <point x="896.0" y="128.0" type="line"/>
      <point x="512.0" y="128.0" type="line"/>
      <point x="128.0" y="128.0" type="line"/>
      <point x="128.0" y="192.0" type="line"/>
      <point x="128.0" y="256.0" type="line"/>
      <point x="256.0" y="256.0" type="line"/>
      <point x="384.0" y="256.0" type="line"/>
      <point x="384.0" y="576.0" type="line"/>
      <point x="384.0" y="896.0" type="line"/>
      <point x="256.0" y="896.0" type="line"/>
      <point x="128.0" y="896.0" type="line"/>
    </contour>
  </outline>
</glyph>
<glyph name="afii10083" format="2">
  <advance width="1024"/>
  <unicode hex="0441"/>
  <outline>
    <contour>
      <point x="128.0" y="704.0" type="line"/>
      <point x="128.0" y="768.0" type="line"/>
      <point x="512.0" y="768.0" type="line"/>
      <point x="896.0" y="768.0" type="line"/>
      <point x="896.0" y="704.0" type="line"/>
      <point x="896.0" y="640.0" type="line"/>
      <point x="576.0" y="640.0" type="line"/>
      <point x="256.0" y="640.0" type="line"/>
      <point x="256.0" y="448.0" type="line"/>
      <point x="256.0" y="256.0" type="line"/>
      <point x="576.0" y="256.0" type="line"/>
      <point x="896.0" y="256.0" type="line"/>
      <point x="896.0" y="192.0" type="line"/>
      <point x="896.0" y="128.0" type="line"/>
      <point x="512.0" y="128.0" type="line"/>
      <point x="128.0" y="128.0" type="line"/>
      <point x="128.0" y="192.0" type="line"/>
      <point x="128.0" y="256.0" type="line"/>
      <point x="64.0" y="256.0" type="line"/>
      <point x="0.0" y="256.0" type="line"/>
      <point x="0.0" y="448.0" type="line"/>
      <point x="0.0" y="640.0" type="line"/>
      <point x="64.0" y="640.0" type="line"/>
      <point x="128.0" y="640.0" type="line"/>
    </contour>
  </outline>
</glyph>
<glyph name="afii10084" format="2">
  <advance width="1024"/>
  <unicode hex="0442"/>
  <outline>
    <contour>
      <point x="128.0" y="704.0" type="line"/>
      <point x="128.0" y="768.0" type="line"/>
      <point x="512.0" y="768.0" type="line"/>
      <point x="896.0" y="768.0" type="line"/>
      <point x="896.0" y="704.0" type="line"/>
      <point x="896.0" y="640.0" type="line"/>
      <point x="768.0" y="640.0" type="line"/>
      <point x="640.0" y="640.0" type="line"/>
      <point x="640.0" y="384.0" type="line"/>
      <point x="640.0" y="128.0" type="line"/>
      <point x="512.0" y="128.0" type="line"/>
      <point x="384.0" y="128.0" type="line"/>
      <point x="384.0" y="384.0" type="line"/>
      <point x="384.0" y="640.0" type="line"/>
      <point x="256.0" y="640.0" type="line"/>
      <point x="128.0" y="640.0" type="line"/>
    </contour>
  </outline>
</glyph>
<glyph name="afii10193" format="2">
  <advance width="1024"/>
  <unicode hex="045F"/>
  <outline>
    <contour>
      <point x="0.0" y="448.0" type="line"/>
      <point x="0.0" y="768.0" type="line"/>
      <point x="128.0" y="768.0" type="line"/>
      <point x="256.0" y="768.0" type="line"/>
      <point x="256.0" y="512.0" type="line"/>
      <point x="256.0" y="256.0" type="line"/>
      <point x="448.0" y="256.0" type="line"/>
      <point x="640.0" y="256.0" type="line"/>
      <point x="640.0" y="512.0" type="line"/>
      <point x="640.0" y="768.0" type="line"/>
      <point x="768.0" y="768.0" type="line"/>
      <point x="896.0" y="768.0" type="line"/>
      <point x="896.0" y="448.0" type="line"/>
      <point x="896.0" y="128.0" type="line"/>
      <point x="704.0" y="128.0" type="line"/>
      <point x="512.0" y="128.0" type="line"/>
      <point x="512.0" y="64.0" type="line"/>
      <point x="512.0" y="0.0" type="line"/>
      <point x="448.0" y="0.0" type="line"/>
      <point x="384.0" y="0.0" type="line"/>
      <point x="384.0" y="64.0" type="line"/>
      <point x="384.0" y="128.0" type="line"/>
      <point x="192.0" y="128.0" type="line"/>
      <point x="0.0" y="128.0" type="line"/>
    </contour>
  </outline>
</glyph>
<glyph name="emdash" format="2">
  <advance width="1024"/>
  <unicode hex="2014"/>
  <outline>
    <contour>
      <point x="0.0" y="576.0" type="line"/>
      <point x="0.0" y="640.0" type="line"/>
      <point x="512.0" y="640.0" type="line"/>
      <point x="1024.0" y="640.0" type="line"/>
      <point x="1024.0" y="576.0" type="line"/>
      <point x="1024.0" y="512.0" type="line"/>
      <point x="512.0" y="512.0" type="line"/>
      <point x="0.0" y="512.0" type="line"/>
    </contour>
  </outline>
</glyph>
<glyph name="afii00208" format="2">
  <advance width="1024"/>
  <unicode hex="2015"/>
  <outline>
    <contour>
      <point x="0.0" y="576.0" type="line"/>
      <point x="0.0" y="640.0" type="line"/>
      <point x="448.0" y="640.0" type="line"/>
      <point x="896.0" y="640.0" type="line"/>
      <point x="896.0" y="576.0" type="line"/>
      <point x="896.0" y="512.0" type="line"/>
      <point x="448.0" y="512.0" type="line"/>
      <point x="0.0" y="512.0" type="line"/>
    </contour>
  </outline>
</glyph>
<glyph name="dagger" format="2">
  <advance width="1024"/>
  <unicode hex="2020"/>
  <outline>
    <contour>
      <point x="384.0" y="896.0" type="line"/>
      <point x="384.0" y="1024.0" type="line"/>
      <point x="512.0" y="1024.0" type="line"/>
      <point x="640.0" y="1024.0" type="line"/>
      <point x="640.0" y="896.0" type="line"/>
      <point x="640.0" y="768.0" type="line"/>
      <point x="768.0" y="768.0" type="line"/>
      <point x="896.0" y="768.0" type="line"/>
      <point x="896.0" y="704.0" type="line"/>
      <point x="896.0" y="640.0" type="line"/>
      <point x="768.0" y="640.0" type="line"/>
      <point x="640.0" y="640.0" type="line"/>
      <point x="640.0" y="384.0" type="line"/>
      <point x="640.0" y="128.0" type="line"/>
      <point x="512.0" y="128.0" type="line"/>
      <point x="384.0" y="128.0" type="line"/>
      <point x="384.0" y="384.0" type="line"/>
      <point x="384.0" y="640.0" type="line"/>
      <point x="256.0" y="640.0" type="line"/>
      <point x="128.0" y="640.0" type="line"/>
      <point x="128.0" y="704.0" type="line"/>
      <point x="128.0" y="768.0" type="line"/>
      <point x="256.0" y="768.0" type="line"/>
      <point x="384.0" y="768.0" type="line"/>
    </contour>
  </outline>
</glyph>
<glyph name="uniF101" format="2">
  <advance width="1024"/>
  <unicode hex="F101"/>
  <outline>
    <contour>
      <point x="384.0" y="320.0" type="line"/>
      <point x="384.0" y="384.0" type="line"/>
      <point x="576.0" y="384.0" type="line"/>
      <point x="768.0" y="384.0" type="line"/>
      <point x="768.0" y="256.0" type="line"/>
      <point x="768.0" y="128.0" type="line"/>
      <point x="448.0" y="128.0" type="line"/>
      <point x="128.0" y="128.0" type="line"/>
      <point x="128.0" y="192.0" type="line"/>
      <point x="128.0" y="256.0" type="line"/>
      <point x="256.0" y="256.0" type="line"/>
      <point x="384.0" y="256.0" type="line"/>
    </contour>
  </outline>
</glyph>
<glyph name=".notdef" format="2">
  <advance width="1024"/>
  <outline>
    <contour>
      <point x="128.0" y="576.0" type="line"/>
      <point x="128.0" y="1024.0" type="line"/>
      <point x="512.0" y="1024.0" type="line"/>
      <point x="896.0" y="1024.0" type="line"/>
      <point x="896.0" y="576.0" type="line"/>
      <point x="896.0" y="128.0" type="line"/>
      <point x="512.0" y="128.0" type="line"/>
      <point x="128.0" y="128.0" type="line"/>
    </contour>
    <contour>
      <point x="768.0" y="704.0" type="line"/>
      <point x="768.0" y="896.0" type="line"/>
      <point x="512.0" y="896.0" type="line"/>
      <point x="256.0" y="896.0" type="line"/>
      <point x="256.0" y="832.0" type="line"/>
      <point x="256.0" y="768.0" type="line"/>
      <point x="448.0" y="768.0" type="line"/>
      <point x="640.0" y="768.0" type="line"/>
      <point x="640.0" y="704.0" type="line"/>
      <point x="640.0" y="640.0" type="line"/>
      <point x="512.0" y="640.0" type="line"/>
      <point x="384.0" y="640.0" type="line"/>
      <point x="384.0" y="576.0" type="line"/>
      <point x="384.0" y="512.0" type="line"/>
      <point x="576.0" y="512.0" type="line"/>
      <point x="768.0" y="512.0" type="line"/>
    </contour>
    <contour>
      <point x="512.0" y="320.0" type="line"/>
      <point x="512.0" y="384.0" type="line"/>
      <point x="448.0" y="384.0" type="line"/>
      <point x="384.0" y="384.0" type="line"/>
      <point x="384.0" y="320.0" type="line"/>
      <point x="384.0" y="256.0" type="line"/>
      <point x="448.0" y="256.0" type="line"/>
      <point x="512.0" y="256.0" type="line"/>
    </contour>
  </outline>
</glyph>
